HIERARCHY
ROOT Hips
{
	OFFSET 0.00000 0.00000 0.00000
	CHANNELS 6 Xposition Yposition Zposition Zrotation Yrotation Xrotation 
	JOINT LHipJoint
	{
		OFFSET 0 0 0
		CHANNELS 3 Zrotation Yrotation Xrotation
		JOINT LeftHip
		{
			OFFSET 1.65412 -1.54119 0.76744
			CHANNELS 3 Zrotation Yrotation Xrotation
			JOINT LeftKnee
			{
				OFFSET 2.19550 -6.03209 0.00000
				CHANNELS 3 Zrotation Yrotation Xrotation
				JOINT LeftAnkle
				{
					OFFSET 2.38814 -6.56138 0.00000
					CHANNELS 3 Zrotation Yrotation Xrotation
					JOINT LeftToe
					{
						OFFSET 0.17337 -0.47632 1.75875
						CHANNELS 3 Zrotation Yrotation Xrotation
						End Site
						{
							OFFSET 0.00000 -0.00000 0.92050
						}
					}
				}
			}
		}
	}
	JOINT RHipJoint
	{
		OFFSET 0 0 0
		CHANNELS 3 Zrotation Yrotation Xrotation
		JOINT RightHip
		{
			OFFSET -1.40291 -1.54119 0.76744
			CHANNELS 3 Zrotation Yrotation Xrotation
			JOINT RightKnee
			{
				OFFSET -2.22156 -6.10370 0.00000
				CHANNELS 3 Zrotation Yrotation Xrotation
				JOINT RightAnkle
				{
					OFFSET -2.46840 -6.78188 0.00000
					CHANNELS 3 Zrotation Yrotation Xrotation
					JOINT RightToe
					{
						OFFSET -0.15659 -0.43024 1.84117
						CHANNELS 3 Zrotation Yrotation Xrotation
						End Site
						{
							OFFSET -0.00000 -0.00000 0.95587
						}
					}
				}
			}
		}
	}
	JOINT lowerback
	{
		OFFSET 0 0 0
		CHANNELS 3 Zrotation Yrotation Xrotation
		JOINT Chest
		{
			OFFSET -0.01936 1.82120 -0.32061
			CHANNELS 3 Zrotation Yrotation Xrotation
			JOINT Chest2
			{
				OFFSET -0.00532 1.85767 -0.00071
				CHANNELS 3 Zrotation Yrotation Xrotation
				JOINT lowerneck
				{
					OFFSET 0 0 0
					CHANNELS 3 Zrotation Yrotation Xrotation
					JOINT Neck
					{
						OFFSET -0.10687 1.58194 0.10810
						CHANNELS 3 Zrotation Yrotation Xrotation
						JOINT Head
						{
							OFFSET 0.15346 1.57382 -0.25612
							CHANNELS 3 Zrotation Yrotation Xrotation
							End Site
							{
								OFFSET 0.05334 1.61251 -0.10513
							}
						}
					}
				}
				JOINT LeftCollar
				{
					OFFSET 0 0 0
					CHANNELS 3 Zrotation Yrotation Xrotation
					JOINT LeftShoulder
					{
						OFFSET 2.85758 0.89498 -0.01485
CHANNELS 3 Zrotation Xrotation Yrotation
						JOINT LeftElbow
						{
OFFSET 0 -4.791850 -0.000000
CHANNELS 3 Zrotation Xrotation Yrotation
							JOINT LeftWrist
							{
OFFSET 0 -2.655530 0.000000
CHANNELS 3 Zrotation Xrotation Yrotation
								JOINT lhand
								{
									OFFSET 0 0 0
CHANNELS 3 Zrotation Xrotation Yrotation
									JOINT LFingers
									{
OFFSET 0 -0.743900 0.000000
CHANNELS 3 Zrotation Xrotation Yrotation
										End Site
										{
OFFSET 0 -0.599750 0.000000
										}
									}
								}
								JOINT LThumb
								{
OFFSET 0 0.000000 0.000000
CHANNELS 3 Zrotation Xrotation Yrotation
									End Site
									{
OFFSET 0 -0.608910 0.608910
									}
								}
							}
						}
					}
				}
				JOINT RightCollar
				{
					OFFSET 0 0 0
					CHANNELS 3 Zrotation Yrotation Xrotation
					JOINT RightShoulder
					{
						OFFSET -2.93906 0.88031 0.02490
CHANNELS 3 Zrotation Xrotation Yrotation
						JOINT RightElbow
						{
OFFSET 0 -4.772540 -0.000000
CHANNELS 3 Zrotation Xrotation Yrotation
							JOINT RightWrist
							{
OFFSET 0 -2.759950 -0.000000
CHANNELS 3 Zrotation Xrotation Yrotation
								JOINT rhand
								{
									OFFSET 0 0 0
CHANNELS 3 Zrotation Xrotation Yrotation
									JOINT RFingers
									{
OFFSET 0 -0.701620 0.000000
CHANNELS 3 Zrotation Xrotation Yrotation
										End Site
										{
OFFSET 0 -0.565660 0.000000
										}
									}
								}
								JOINT RThumb
								{
OFFSET 0 0.000000 0.000000
CHANNELS 3 Zrotation Xrotation Yrotation
									End Site
									{
OFFSET 0 -0.574300 0.574300
									}
								}
							}
						}
					}
				}
			}
		}
	}
}
MOTION
Frames: 9
Frame Time: 0.008333333333333333
-0.236339 15.460162 -2.073087 1.971282 -2.855610 -1.166973 0.000000 0.000000 0.000000 -14.528019 -5.967480 -17.585248 3.412438 11.334551 33.416708 0.277765 -4.049112 -9.386384 0.478474 -4.435854 -12.306328 0.000000 0.000000 0.000000 14.301688 14.684899 -19.795306 -5.152058 -13.553022 41.475415 -0.656418 -0.929442 -15.669466 -0.292221 3.476139 -9.607298 -1.935361 0.338378 23.150288 -2.977676 -0.170759 8.366760 -2.057801 -0.073631 -3.735771 -14.962236 -5.692698 -7.474757 11.009386 -7.246456 11.673717 5.390936 -3.519808 5.695802 0.000000 0.000000 0.000000 96.016063 -40.760502 9.441727 29.174615 -40.175070 10.873229 4.700586 -57.615906 -20.273666 0.000000 0.000000 0.000000 -7.125000 0.000000 0.000000 -23.051952 48.869845 2.312344 0.000000 0.000000 0.000000 -101.111391 -46.704103 8.613258 -145.804392 -44.227231 -105.749968 -14.311999 -82.630432 -9.415317 0.000000 0.000000 0.000000 7.125000 0.000000 0.000000 9.033112 20.324406 5.400191
-0.226121 15.459999 -2.095245 1.833788 -2.575205 -1.235536 0.000000 0.000000 0.000000 -14.425135 -6.180828 -17.674372 3.444123 11.381466 33.577449 0.279113 -4.206806 -9.418636 0.501983 -4.542191 -12.607320 0.000000 0.000000 0.000000 14.390093 14.742695 -19.705427 -5.134993 -13.534255 41.402692 -0.650634 -1.182943 -15.710210 -0.277616 3.388487 -9.362322 -1.515803 0.258357 23.299395 -3.266024 -0.197826 8.537132 -2.603382 -0.076088 -3.626879 -14.510965 -5.462767 -7.600000 11.128206 -7.035523 12.388584 5.380377 -3.391390 5.896573 0.000000 0.000000 0.000000 96.388793 -41.564911 6.813094 29.073921 -40.086219 10.808362 5.787352 -58.591393 -20.428889 0.000000 0.000000 0.000000 -7.125000 0.000000 0.000000 -22.133716 49.170823 2.382449 0.000000 0.000000 0.000000 -103.868281 -44.318099 7.406359 -149.385130 -41.413853 -108.185388 -16.344502 -85.046080 -8.692192 0.000000 0.000000 0.000000 7.125000 0.000000 0.000000 7.596360 20.961495 4.414194
-0.218921 15.456140 -2.120974 1.787595 -2.287563 -1.237363 0.000000 0.000000 0.000000 -14.380169 -6.258639 -17.850693 3.448343 11.387728 33.598978 0.260126 -4.401702 -9.121520 0.451333 -4.310068 -11.950756 0.000000 0.000000 0.000000 14.381564 14.912639 -19.728460 -5.140402 -13.540202 41.425893 -0.645907 -1.576565 -15.832460 -0.270434 3.344840 -9.240466 -1.509075 0.141403 23.311497 -3.171079 -0.334352 8.705889 -2.468546 -0.143177 -3.453476 -14.323513 -5.163681 -7.703519 11.092610 -6.656804 12.772894 5.375925 -3.200447 5.974219 0.000000 0.000000 0.000000 95.934580 -41.946466 4.618835 29.080223 -40.091844 10.812361 6.514541 -58.781557 -20.875777 0.000000 0.000000 0.000000 -7.125000 0.000000 0.000000 -21.677644 49.693041 2.617994 0.000000 0.000000 0.000000 -106.224462 -42.250334 6.941941 -150.939141 -40.074614 -109.200074 -16.963992 -85.658062 -8.574611 0.000000 0.000000 0.000000 7.125000 0.000000 0.000000 7.152496 21.050966 4.137742
-0.199294 15.453145 -2.146912 1.952621 -2.144082 -1.168075 0.000000 0.000000 0.000000 -14.609937 -6.069583 -18.142156 3.435609 11.368843 33.534273 0.234285 -4.641515 -8.711609 0.417212 -4.145064 -11.485143 0.000000 0.000000 0.000000 14.071970 15.060441 -19.928206 -5.171925 -13.574833 41.560294 -0.636412 -1.885078 -15.867892 -0.310074 3.579864 -9.897506 -1.515606 0.073129 23.329807 -3.068127 -0.414052 8.801854 -2.332922 -0.183256 -3.360147 -13.923346 -4.954672 -7.915015 11.264744 -6.442982 13.063550 5.387206 -3.061951 6.063174 0.000000 0.000000 0.000000 95.788244 -41.915867 2.336261 29.442505 -40.410704 11.046468 6.796256 -59.983308 -20.956185 0.000000 0.000000 0.000000 -7.125000 0.000000 0.000000 -21.455742 49.810122 2.652910 0.000000 0.000000 0.000000 -107.586654 -40.009528 7.027128 -151.941943 -39.169454 -109.839586 -17.400429 -86.784370 -8.624805 0.000000 0.000000 0.000000 7.125000 0.000000 0.000000 6.837392 20.975503 3.964367
-0.168030 15.450489 -2.158265 2.242232 -2.104512 -1.155350 0.000000 0.000000 0.000000 -15.040054 -5.809140 -18.222789 3.408475 11.328613 33.396361 0.223082 -4.828468 -8.546568 0.394406 -4.032377 -11.167802 0.000000 0.000000 0.000000 13.594023 15.231863 -19.986322 -5.204182 -13.610091 41.697360 -0.649646 -1.940447 -16.049073 -0.287555 3.448501 -9.529997 -1.564351 -0.075740 23.241755 -2.742298 -0.593173 8.858126 -1.906855 -0.277426 -3.257706 -14.105046 -4.779083 -8.176102 11.776457 -6.255286 13.539596 5.609689 -2.940645 6.252644 0.000000 0.000000 0.000000 95.083207 -42.137442 1.208468 29.447555 -40.415173 11.049670 7.707021 -60.705801 -21.455701 0.000000 0.000000 0.000000 -7.125000 0.000000 0.000000 -20.849583 50.415845 2.892476 0.000000 0.000000 0.000000 -108.647891 -38.222438 6.858916 -152.817891 -38.352251 -110.388069 -19.076154 -87.773478 -8.128366 0.000000 0.000000 0.000000 7.125000 0.000000 0.000000 5.631515 21.402685 3.203317
-0.134338 15.453294 -2.167560 2.271727 -2.160199 -1.255635 0.000000 0.000000 0.000000 -15.202104 -5.567723 -18.238731 3.404540 11.322835 33.376402 0.225017 -5.037707 -8.617056 0.404515 -4.083016 -11.310365 0.000000 0.000000 0.000000 13.469701 15.375870 -19.897323 -5.202110 -13.607806 41.688729 -0.635377 -2.153763 -15.989181 -0.347847 3.789329 -10.484799 -1.075324 -0.099285 23.188163 -2.361728 -0.494145 8.976216 -1.800495 -0.226437 -3.102289 -13.367281 -4.882625 -8.146096 11.750863 -6.512079 13.682182 5.455063 -3.029903 6.300686 0.000000 0.000000 0.000000 95.003164 -43.013192 0.714563 29.269891 -40.259314 10.934756 8.161087 -61.498176 -21.934810 0.000000 0.000000 0.000000 -7.125000 0.000000 0.000000 -20.658211 50.935474 3.135597 0.000000 0.000000 0.000000 -108.462586 -35.941697 7.099024 -153.376891 -37.817365 -110.732828 -18.333811 -87.995030 -9.090759 0.000000 0.000000 0.000000 7.125000 0.000000 0.000000 6.162336 20.437526 3.643363
-0.092373 15.445644 -2.171586 2.659413 -2.423144 -1.366156 0.000000 0.000000 0.000000 -15.778033 -5.073214 -18.238618 3.407104 11.326520 33.389232 0.223263 -5.338633 -8.645717 0.383891 -3.979042 -11.017562 0.000000 0.000000 0.000000 12.908823 15.594784 -19.880725 -5.240118 -13.649176 41.849946 -0.642690 -2.129118 -16.062377 -0.408952 4.105258 -11.372866 -0.807136 -0.181224 23.165074 -2.012722 -0.525643 8.962227 -1.569736 -0.243582 -3.106970 -13.008265 -5.105440 -7.885096 12.005886 -6.944291 13.728178 5.443073 -3.210909 6.322518 0.000000 0.000000 0.000000 95.064605 -42.866598 -0.251775 29.751743 -40.679611 11.247512 8.704999 -62.877018 -22.191334 0.000000 0.000000 0.000000 -7.125000 0.000000 0.000000 -20.272357 51.263630 3.240739 0.000000 0.000000 0.000000 -108.010288 -33.994737 6.934879 -153.496325 -37.701787 -110.806010 -17.085753 -87.382685 -8.765185 0.000000 0.000000 0.000000 7.125000 0.000000 0.000000 7.061848 20.847134 4.117253
-0.056969 15.440838 -2.171429 2.666543 -2.447268 -1.326058 0.000000 0.000000 0.000000 -15.893978 -4.949914 -18.443007 3.435991 11.369425 33.536179 0.221463 -5.515731 -8.653356 0.381034 -3.964268 -10.976146 0.000000 0.000000 0.000000 12.756149 15.827675 -19.902022 -5.258550 -13.669203 41.928096 -0.642056 -2.234368 -16.108353 -0.425426 4.185951 -11.600408 -0.167674 -0.367475 22.985355 -1.435766 -0.595901 9.134722 -1.297085 -0.275678 -2.832899 -12.881587 -5.433312 -8.574631 12.669472 -7.463822 13.981274 5.583861 -3.385429 6.613593 0.000000 0.000000 0.000000 95.556389 -43.099549 0.579374 30.244764 -41.102244 11.570230 9.066926 -63.726432 -22.349102 0.000000 0.000000 0.000000 -7.125000 0.000000 0.000000 -20.008114 51.470859 3.300031 0.000000 0.000000 0.000000 -107.562975 -30.861740 7.290586 -152.998398 -38.180520 -110.499829 -15.787024 -87.083839 -9.898666 0.000000 0.000000 0.000000 7.125000 0.000000 0.000000 7.972386 19.751118 4.855862
-0.013372 15.444515 -2.157789 3.007742 -2.741658 -1.382609 0.000000 0.000000 0.000000 -16.449187 -4.596353 -18.277419 3.402513 11.319852 33.366165 0.211487 -5.477474 -8.475012 0.302539 -3.536221 -9.775518 0.000000 0.000000 0.000000 12.232687 15.894035 -19.854913 -5.262229 -13.673113 41.943567 -0.653156 -1.997040 -16.117870 -0.437605 4.245011 -11.766928 0.088152 -0.576327 22.855879 -0.850629 -0.784890 8.938932 -0.768078 -0.375888 -2.981717 -12.592215 -5.544471 -8.213488 12.790968 -7.729999 14.087018 5.556909 -3.501425 6.612324 0.000000 0.000000 0.000000 95.448230 -43.190085 1.054413 30.643398 -41.438454 11.833251 9.079798 -63.496822 -22.661862 0.000000 0.000000 0.000000 -7.125000 0.000000 0.000000 -20.152718 51.767081 3.475747 0.000000 0.000000 0.000000 -106.840527 -27.910004 8.873858 -151.636458 -39.448195 -109.645872 -13.560726 -86.285731 -10.608658 0.000000 0.000000 0.000000 7.125000 0.000000 0.000000 9.530836 19.153716 5.960077
